HIERARCHY
ROOT Hips
{
	OFFSET 39.071800 -4.350876 98.803398
	CHANNELS 6 Xposition Yposition Zposition Xrotation Yrotation Zrotation
	JOINT spine
	{
		OFFSET 0.000000 -0.477353 8.301033
		CHANNELS 3 Xrotation Yrotation Zrotation
		JOINT spine1
		{
			OFFSET 0.000000 -0.000001 10.456497
			CHANNELS 3 Xrotation Yrotation Zrotation
			JOINT spine2
			{
				OFFSET 0.000000 -0.000002 10.019203
				CHANNELS 3 Xrotation Yrotation Zrotation
				JOINT Neck
				{
					OFFSET 0.000000 -1.226414 25.723503
					CHANNELS 3 Xrotation Yrotation Zrotation
					JOINT Head
					{
						OFFSET 0.000000 -0.000001 7.771744
						CHANNELS 3 Xrotation Yrotation Zrotation
						End Site
						{
							OFFSET 0.000000 6.203937 18.811996
						}
					}
				}
				JOINT RightShoulder
				{
					OFFSET -4.218800 0.587438 10.820000
					CHANNELS 3 Xrotation Yrotation Zrotation
					JOINT RightArm
					{
						OFFSET 0.000000 -0.000002 14.191406
						CHANNELS 3 Xrotation Yrotation Zrotation
						JOINT RightArmRoll
						{
							OFFSET 0.000000 -0.000001 7.164078
							CHANNELS 3 Xrotation Yrotation Zrotation
							JOINT RightForeArm
							{
								OFFSET 0.000000 -0.000003 20.866501
								CHANNELS 3 Xrotation Yrotation Zrotation
								JOINT RightForeArmRoll
								{
									OFFSET 0.000000 -0.000001 8.039215
									CHANNELS 3 Xrotation Yrotation Zrotation
									JOINT RightHand
									{
										OFFSET 0.000000 -0.000003 16.132996
										CHANNELS 3 Xrotation Yrotation Zrotation
										End Site
										{
											OFFSET 0.000000 0.000000 0.100006
										}
									}
								}
							}
						}
					}
				}
				JOINT LeftShoulder
				{
					OFFSET 4.218800 0.587438 10.820000
					CHANNELS 3 Xrotation Yrotation Zrotation
					JOINT LeftArm
					{
						OFFSET 0.000000 -0.000002 14.191406
						CHANNELS 3 Xrotation Yrotation Zrotation
						JOINT LeftArmRoll
						{
							OFFSET 0.000000 -0.000001 7.164078
							CHANNELS 3 Xrotation Yrotation Zrotation
							JOINT LeftForeArm
							{
								OFFSET 0.000000 -0.000003 20.866501
								CHANNELS 3 Xrotation Yrotation Zrotation
								JOINT LeftForeArmRoll
								{
									OFFSET 0.000000 -0.000001 8.039215
									CHANNELS 3 Xrotation Yrotation Zrotation
									JOINT LeftHand
									{
										OFFSET 0.000000 -0.000003 16.132996
										CHANNELS 3 Xrotation Yrotation Zrotation
										End Site
										{
											OFFSET 0.000000 0.000000 0.100006
										}
									}
								}
							}
						}
					}
				}
			}
		}
	}
	JOINT RightUpLeg
	{
		OFFSET -7.357731 1.131810 -1.349213
		CHANNELS 3 Xrotation Yrotation Zrotation
		JOINT RightUpLegRoll
		{
			OFFSET 0.000000 -0.000003 18.916801
			CHANNELS 3 Xrotation Yrotation Zrotation
			JOINT RightLeg
			{
				OFFSET 0.000000 0.000004 -23.425598
				CHANNELS 3 Xrotation Yrotation Zrotation
				JOINT RightLegRoll
				{
					OFFSET 0.000000 -0.000004 23.502304
					CHANNELS 3 Xrotation Yrotation Zrotation
					JOINT RightFoot
					{
						OFFSET 0.000000 -0.000003 19.561707
						CHANNELS 3 Xrotation Yrotation Zrotation
						JOINT RightToeBase
						{
							OFFSET 0.000000 -0.000003 16.352600
							CHANNELS 3 Xrotation Yrotation Zrotation
							End Site
							{
								OFFSET 0.006931 0.912836 7.919434
							}
						}
					}
				}
			}
		}
	}
	JOINT LeftUpLeg
	{
		OFFSET 7.357731 1.131810 -1.349213
		CHANNELS 3 Xrotation Yrotation Zrotation
		JOINT LeftUpLegRoll
		{
			OFFSET 0.000000 -0.000003 18.916901
			CHANNELS 3 Xrotation Yrotation Zrotation
			JOINT LeftLeg
			{
				OFFSET 0.000000 -0.000004 23.425499
				CHANNELS 3 Xrotation Yrotation Zrotation
				JOINT LeftLegRoll
				{
					OFFSET 0.000000 -0.000004 23.719498
					CHANNELS 3 Xrotation Yrotation Zrotation
					JOINT LeftFoot
					{
						OFFSET 0.000000 -0.000003 19.344406
						CHANNELS 3 Xrotation Yrotation Zrotation
						JOINT LeftToeBase
						{
							OFFSET 0.000000 -0.000003 16.352600
							CHANNELS 3 Xrotation Yrotation Zrotation
							End Site
							{
								OFFSET -0.031063 0.912836 7.919434
							}
						}
					}
				}
			}
		}
	}
}
MOTION
Frames: 13
Frame Time: 0.041667
39.002605 -4.468345 98.806709 -1.622116 -1.057717 1.309828 -1.839899 0.175021 0.232990 0.345194 0.341091 0.472394 1.990266 0.346716 0.468279 39.357452 -0.418350 -2.484880 -23.541196 0.887367 -2.407044 -14.130779 -32.044502 -15.671732 -134.255100 -157.451297 -88.626841 0.000010 -0.000020 0.000003 101.871855 4.706510 7.856370 -0.000005 -0.000008 -3.008071 -5.000181 -7.999093 0.000125 5.703089 67.440748 -5.334607 -45.902409 102.672039 28.351823 0.000001 -0.000000 -0.000000 5.781568 10.746047 -0.011454 -0.000003 -0.000005 3.000000 -5.000218 7.998890 -0.000138 0.242074 -175.535042 1.296215 -179.999991 0.000005 -1.084001 173.471574 -3.783382 -0.686637 0.000003 0.000001 0.070782 69.359171 6.879684 2.152642 25.456854 -7.355619 -0.000003 1.055766 176.446599 0.929636 -0.000005 -0.000005 -1.137610 -7.973816 3.842868 0.912448 -0.000007 -0.000003 -0.101345 67.983065 -6.920226 -2.107194 25.456959 7.355614 0.000000 
39.000000 -4.469253 98.807304 -1.621205 -1.055248 1.298595 -1.840339 0.174726 0.232948 0.346176 0.341239 0.472470 1.991246 0.346865 0.468353 39.351510 -0.314751 -2.502570 -23.525579 0.791633 -2.415333 -14.109130 -32.035503 -15.640939 -134.246426 -157.400685 -88.642994 0.000007 -0.000024 0.000005 102.591969 4.642073 7.925562 -0.000001 -0.000007 -3.008069 -5.000186 -7.999094 0.000127 5.684394 67.481142 -5.307815 -45.920656 102.671308 28.378162 0.000000 0.000000 0.000001 5.788742 10.752185 -0.012025 -0.000002 -0.000005 3.000001 -5.000219 7.998891 -0.000138 0.238288 -175.538034 1.297697 -179.999991 0.000005 -1.084001 173.472216 -3.790335 -0.686391 0.000003 0.000001 0.070812 69.357791 6.879694 2.152828 25.456854 -7.355620 -0.000002 1.059999 176.443621 0.929151 -0.000005 -0.000004 -1.137800 -7.966319 3.840907 0.911875 -0.000007 -0.000003 -0.101268 67.981597 -6.920250 -2.107292 25.456962 7.355613 -0.000001 
38.987202 -4.463496 98.802399 -1.620553 -1.052669 1.287530 -1.840559 0.174446 0.232824 0.347307 0.341332 0.472362 1.992377 0.346959 0.468244 39.344618 -0.213285 -2.519541 -23.509458 0.699153 -2.422962 -14.087514 -32.026692 -15.610262 -134.231140 -157.341576 -88.674679 0.000009 -0.000022 0.000006 103.303162 4.582370 7.984330 -0.000003 -0.000008 -3.008067 -5.000185 -7.999093 0.000125 5.664387 67.520477 -5.279735 -45.933374 102.671725 28.398620 0.000001 -0.000001 0.000002 5.796824 10.758004 -0.012649 -0.000004 -0.000005 3.000001 -5.000221 7.998889 -0.000137 0.235154 -175.542036 1.298977 -179.999991 0.000005 -1.084001 173.473445 -3.796303 -0.685993 0.000003 0.000001 0.070841 69.356200 6.879652 2.153219 25.456851 -7.355619 -0.000002 1.063819 176.439619 0.928469 -0.000005 -0.000004 -1.137990 -7.960107 3.838954 0.911361 -0.000007 -0.000003 -0.101204 67.980661 -6.920284 -2.107156 25.456959 7.355614 -0.000001 
38.975899 -4.462557 98.799202 -1.620202 -1.050000 1.276672 -1.840504 0.174195 0.232603 0.348610 0.341380 0.472037 1.993687 0.347006 0.467918 39.336890 -0.114463 -2.535679 -23.492716 0.610648 -2.429832 -14.066155 -32.017939 -15.579836 -134.208340 -157.272769 -88.724472 0.000008 -0.000020 0.000004 104.003967 4.527410 8.029659 -0.000003 -0.000007 -3.008069 -5.000184 -7.999092 0.000125 5.642685 67.558269 -5.249985 -45.940443 102.673296 28.413222 0.000001 0.000002 0.000001 5.805937 10.763307 -0.013355 -0.000003 -0.000005 3.000000 -5.000219 7.998890 -0.000138 0.232763 -175.546039 1.299975 -179.999991 0.000005 -1.084001 173.475303 -3.802289 -0.686551 0.000004 0.000001 0.070871 69.354294 6.879634 2.153535 25.456854 -7.355619 -0.000002 1.066985 176.436613 0.927473 -0.000005 -0.000004 -1.138170 -7.955730 3.837133 0.910942 -0.000008 -0.000003 -0.101165 67.980258 -6.920320 -2.107189 25.456957 7.355614 -0.000000 
38.974899 -4.472616 98.799301 -1.620169 -1.047241 1.266020 -1.840136 0.173987 0.232272 0.350107 0.341392 0.471461 1.995177 0.347012 0.467341 39.328202 -0.018794 -2.550852 -23.475258 0.526838 -2.435839 -14.044800 -32.009203 -15.549522 -134.177331 -157.192815 -88.795191 0.000008 -0.000022 0.000003 104.693283 4.477553 8.062431 -0.000003 -0.000006 -3.008061 -5.000185 -7.999093 0.000124 5.619174 67.594612 -5.218453 -45.940583 102.676280 28.420537 0.000000 0.000001 0.000001 5.816168 10.767996 -0.014133 -0.000003 -0.000005 3.000001 -5.000219 7.998891 -0.000137 0.231214 -175.550027 1.300629 -179.999991 0.000005 -1.084001 173.477885 -3.807276 -0.685950 0.000003 0.000001 0.070901 69.352061 6.879599 2.153869 25.456851 -7.355619 -0.000003 1.069282 176.431614 0.925954 -0.000005 -0.000005 -1.138350 -7.953731 3.835558 0.910653 -0.000008 -0.000003 -0.101162 67.980470 -6.920340 -2.107279 25.456959 7.355614 0.000000 
38.972900 -4.470713 98.795502 -1.620520 -1.044413 1.255594 -1.839411 0.173835 0.231816 0.351820 0.341375 0.470603 1.996896 0.346989 0.466482 39.318339 0.073216 -2.564935 -23.457159 0.448442 -2.440883 -14.023663 -32.000314 -15.519447 -134.137334 -157.100402 -88.889605 0.000007 -0.000022 0.000005 105.369649 4.432404 8.077628 -0.000005 -0.000005 -3.008062 -5.000187 -7.999091 0.000124 5.593519 67.629118 -5.184798 -45.933111 102.680795 28.419744 0.000000 0.000000 0.000000 5.827607 10.771964 -0.015001 -0.000003 -0.000005 3.000001 -5.000220 7.998891 -0.000139 0.230582 -175.554044 1.300853 -179.999991 0.000005 -1.084001 173.481177 -3.811279 -0.686185 0.000003 0.000001 0.070931 69.349513 6.879585 2.154224 25.456853 -7.355619 -0.000003 1.070445 176.427625 0.923817 -0.000005 -0.000005 -1.138520 -7.954652 3.834349 0.910527 -0.000009 -0.000003 -0.101207 67.981542 -6.920390 -2.107223 25.456959 7.355614 -0.000000 
38.966698 -4.461935 98.794296 -1.621217 -1.041483 1.245374 -1.838299 0.173743 0.231209 0.353780 0.341313 0.469384 1.998857 0.346920 0.465262 39.307582 0.161474 -2.577840 -23.438836 0.375884 -2.444860 -14.002606 -31.991121 -15.489578 -134.090998 -156.995942 -89.004298 0.000010 -0.000021 0.000005 106.037259 4.387918 8.080561 0.000002 -0.000008 -3.008062 -5.000182 -7.999094 0.000127 5.565004 67.661992 -5.148205 -45.916954 102.687181 28.409765 -0.000000 0.000000 -0.000000 5.840638 10.775099 -0.015947 -0.000002 -0.000005 3.000001 -5.000219 7.998891 -0.000139 0.230828 -175.558046 1.300757 -179.999991 0.000005 -1.084001 173.485234 -3.815272 -0.685356 0.000003 0.000001 0.070961 69.346542 6.879552 2.154603 25.456853 -7.355619 -0.000003 1.070893 176.422625 0.921375 -0.000005 -0.000004 -1.138690 -7.957687 3.833192 0.910500 -0.000007 -0.000003 -0.101277 67.983325 -6.920392 -2.107311 25.456957 7.355615 -0.000000 
38.958302 -4.463614 98.803909 -1.622207 -1.038434 1.235353 -1.836819 0.173694 0.230453 0.355981 0.341189 0.467782 2.001057 0.346784 0.463661 39.295936 0.246506 -2.589641 -23.420758 0.308644 -2.447796 -13.981917 -31.981203 -15.460034 -134.041356 -156.881194 -89.134139 0.000011 -0.000025 0.000003 106.700471 4.340689 8.074580 -0.000003 -0.000010 -3.008054 -5.000188 -7.999092 0.000126 5.533252 67.693486 -5.108221 -45.893626 102.695186 28.391935 0.000000 0.000001 0.000000 5.855392 10.777413 -0.016954 -0.000002 -0.000005 3.000001 -5.000219 7.998890 -0.000138 0.231813 -175.563046 1.300503 -179.999991 0.000005 -1.084001 173.489974 -3.819285 -0.685493 0.000003 0.000001 0.070991 69.343256 6.879540 2.155004 25.456851 -7.355619 -0.000002 1.071160 176.417625 0.919083 -0.000005 -0.000005 -1.138860 -7.961603 3.831709 0.910484 -0.000007 -0.000003 -0.101344 67.985545 -6.920431 -2.107379 25.456964 7.355615 -0.000001 
38.954796 -4.459452 98.802399 -1.623476 -1.035255 1.225510 -1.835019 0.173677 0.229567 0.358395 0.341000 0.465854 2.003467 0.346582 0.461732 39.283468 0.328719 -2.600471 -23.402728 0.246027 -2.449842 -13.961271 -31.970777 -15.430620 -133.988654 -156.756721 -89.278618 0.000009 -0.000021 0.000004 107.358628 4.291146 8.059645 -0.000001 -0.000010 -3.008053 -5.000186 -7.999092 0.000124 5.498801 67.723648 -5.065425 -45.863166 102.704831 28.366559 0.000000 0.000001 0.000001 5.871663 10.778894 -0.018000 -0.000002 -0.000005 3.000000 -5.000218 7.998891 -0.000139 0.233488 -175.568032 1.300092 -179.999991 0.000005 -1.084001 173.495356 -3.822312 -0.685474 0.000003 0.000001 0.071021 69.339561 6.879540 2.155433 25.456851 -7.355619 -0.000003 1.071266 176.412626 0.916913 -0.000005 -0.000004 -1.139030 -7.966326 3.829933 0.910478 -0.000007 -0.000003 -0.101409 67.988188 -6.920465 -2.107422 25.456957 7.355613 -0.000000 
38.954494 -4.459815 98.788597 -1.625004 -1.031945 1.215856 -1.832943 0.173681 0.228571 0.360995 0.340747 0.463655 2.006066 0.346314 0.459533 39.270091 0.408523 -2.610440 -23.384438 0.187335 -2.451094 -13.940848 -31.960217 -15.401470 -133.932893 -156.623232 -89.437612 0.000008 -0.000021 0.000007 108.010965 4.239556 8.034807 0.000001 -0.000008 -3.008053 -5.000183 -7.999097 0.000124 5.462143 67.752772 -5.020352 -45.827356 102.715677 28.335525 0.000001 -0.000000 -0.000000 5.889226 10.779856 -0.019103 -0.000003 -0.000006 3.000001 -5.000221 7.998889 -0.000139 0.235805 -175.572034 1.299555 -179.999991 0.000005 -1.084001 173.501367 -3.825330 -0.684415 0.000003 0.000001 0.071052 69.335641 6.879496 2.155968 25.456853 -7.355619 -0.000002 1.071237 176.407626 0.914834 -0.000005 -0.000004 -1.139200 -7.971791 3.827911 0.910483 -0.000007 -0.000003 -0.101473 67.991241 -6.920498 -2.107435 25.456960 7.355615 -0.000001 
38.948597 -4.474433 98.791801 -1.626772 -1.028506 1.206372 -1.830620 0.173698 0.227485 0.363750 0.340428 0.461241 2.008826 0.345977 0.457120 39.255880 0.486328 -2.619689 -23.365872 0.131872 -2.451687 -13.920533 -31.949542 -15.372466 -133.874303 -156.481191 -89.610682 0.000007 -0.000019 0.000005 108.656507 4.187298 8.001883 -0.000001 -0.000009 -3.008052 -5.000185 -7.999089 0.000123 5.423694 67.780632 -4.973461 -45.786579 102.727650 28.299168 0.000000 -0.000000 0.000001 5.907857 10.780397 -0.020249 -0.000002 -0.000005 2.999999 -5.000217 7.998890 -0.000139 0.238730 -175.577048 1.298909 -179.999991 0.000005 -1.084001 173.507965 -3.828366 -0.684313 0.000004 0.000001 0.071082 69.331406 6.879470 2.156526 25.456853 -7.355620 -0.000003 1.071087 176.402626 0.912821 -0.000005 -0.000005 -1.139380 -7.977915 3.825675 0.910500 -0.000007 -0.000003 -0.101534 67.994608 -6.920522 -2.107528 25.456955 7.355614 -0.000001 
38.945400 -4.471066 98.801910 -1.628737 -1.024946 1.197057 -1.828131 0.173713 0.226331 0.366634 0.340043 0.458667 2.011706 0.345575 0.454548 39.240956 0.562543 -2.628321 -23.346620 0.078943 -2.451736 -13.900376 -31.939051 -15.343624 -133.812845 -156.331487 -89.797604 0.000011 -0.000022 0.000005 109.294802 4.134543 7.960881 0.000001 -0.000009 -3.008044 -5.000189 -7.999093 0.000126 5.384053 67.807639 -4.925390 -45.741736 102.740525 28.258762 -0.000001 0.000001 0.000001 5.927348 10.780525 -0.021445 -0.000004 -0.000005 3.000000 -5.000219 7.998890 -0.000137 0.242203 -175.583045 1.298152 -179.999991 0.000005 -1.083003 173.515055 -3.831407 -0.684177 0.000003 0.000001 0.071112 69.326973 6.879472 2.156901 25.456848 -7.355619 -0.000003 1.070822 176.397627 0.910842 -0.000005 -0.000004 -1.139550 -7.984628 3.823265 0.910528 -0.000008 -0.000003 -0.101594 67.998399 -6.920542 -2.107595 25.456960 7.355613 -0.000001 
38.942196 -4.459792 98.797699 -1.630918 -1.021256 1.187913 -1.825488 0.173719 0.225127 0.369620 0.339593 0.455990 2.014687 0.345105 0.451872 39.224988 0.637578 -2.636464 -23.326705 0.027850 -2.451361 -13.880179 -31.929055 -15.314874 -133.748833 -156.174488 -89.998090 0.000010 -0.000021 0.000005 109.924948 4.081835 7.908721 0.000002 -0.000010 -3.008044 -5.000184 -7.999095 0.000128 5.343643 67.833641 -4.876605 -45.694037 102.754022 28.215325 0.000001 -0.000000 0.000000 5.947479 10.780535 -0.022681 -0.000003 -0.000005 3.000001 -5.000218 7.998890 -0.000138 0.246184 -175.588044 1.297307 -179.999991 0.000005 -1.083003 173.522636 -3.834437 -0.683011 0.000003 0.000001 0.071143 69.322308 6.879463 2.157390 25.456854 -7.355619 -0.000002 1.070480 176.391630 0.908852 -0.000005 -0.000004 -1.139730 -7.991838 3.820741 0.910569 -0.000007 -0.000003 -0.101653 68.002408 -6.920580 -2.107551 25.456960 7.355615 -0.000001 
